<?xml version="1.0" encoding="UTF-8" standalone="no"?>
<!-- Created with Inkscape (http://www.inkscape.org/) -->
<svg
   xmlns:svg="http://www.w3.org/2000/svg"
   xmlns="http://www.w3.org/2000/svg"
   version="1.0"
   width="627.76898"
   height="550.45001"
   viewBox="0 0 627.769 550.45"
   id="svg2283"
   xml:space="preserve"><defs
   id="defs2300" />
<g
   id="Layer_4">
	<g
   id="g2286">
		<polygon
   points="93.581,485.725 535.637,485.725 314.611,102.892 93.581,485.725 "
   style="fill:none"
   id="polygon2288" />
		<path
   d="M 590.194,472.222 L 353.581,62.393 C 345.542,48.469 330.686,39.892 314.609,39.892 C 298.532,39.892 283.678,48.469 275.639,62.391 L 39.021,472.222 C 35.001,479.184 32.992,486.953 32.992,494.722 C 32.992,502.492 35.001,510.261 39.021,517.222 C 47.06,531.147 61.916,539.724 77.993,539.724 L 551.225,539.724 C 567.299,539.724 582.157,531.147 590.196,517.222 C 594.216,510.261 596.225,502.493 596.223,494.723 C 596.223,486.955 594.213,479.185 590.194,472.222 z "
   style="fill:#ed171f"
   id="path2290" />
	</g>
</g>
<g
   id="Layer_5">
	<polygon
   points="93.58,485.725 314.61,102.892 535.635,485.725 93.58,485.725 "
   style="fill:#feb82f"
   id="polygon2293" />
</g>
<g
   id="Layer_3">
	<circle
   cx="314.60699"
   cy="436.29401"
   r="27.247"
   id="circle2237" />
	<path
   d="M 314.608,192.817 C 297.634,192.817 286.608,204.088 286.98,215.905 C 287.253,224.492 288.238,253.454 289.907,272.535 L 298.13,364.179 C 299.442,375.326 301.332,383.53 303.802,388.871 C 305.999,393.625 309.6,396.229 314.608,396.725 C 319.616,396.23 323.218,393.625 325.414,388.871 C 327.883,383.529 329.772,375.326 331.085,364.179 L 339.31,272.535 C 340.98,253.454 341.964,224.492 342.236,215.905 C 342.58,204.974 331.582,192.817 314.608,192.817 z "
   id="path2297" />
</g>
</svg>